<svg aria-hidden="true" style="position: absolute; width: 0; height: 0; overflow: hidden;" version="1.1" xmlns="http://www.w3.org/2000/svg" xmlns:xlink="http://www.w3.org/1999/xlink">
<defs>
<symbol id="icon-layers" viewBox="0 0 32 32">
<path d="M30.765 7.262l-11.543-6.515c-1.571-0.887-4.271-0.888-5.845 0l-11.543 6.515c-0.883 0.499-1.368 1.197-1.368 1.967s0.486 1.468 1.368 1.966l11.543 6.516c0.786 0.444 1.824 0.688 2.922 0.688s2.137-0.245 2.923-0.688l11.543-6.516c0.883-0.498 1.369-1.196 1.369-1.966s-0.487-1.468-1.369-1.967zM30.239 10.265l-11.543 6.516c-1.238 0.699-3.556 0.7-4.794 0l-11.543-6.516c-0.524-0.296-0.824-0.674-0.824-1.036s0.3-0.74 0.824-1.037l11.543-6.516c0.619-0.35 1.493-0.55 2.396-0.55 0.904 0 1.778 0.201 2.397 0.55l11.543 6.516c0.524 0.296 0.825 0.674 0.825 1.037 0.001 0.362-0.299 0.74-0.824 1.036zM30.765 14.099c-0.256-0.145-0.582-0.055-0.729 0.203-0.145 0.257-0.054 0.583 0.203 0.728 0.524 0.296 0.825 0.674 0.825 1.036s-0.301 0.74-0.825 1.036l-11.543 6.516c-1.298 0.733-3.494 0.734-4.794 0l-11.543-6.516c-0.524-0.296-0.824-0.674-0.824-1.036s0.3-0.74 0.824-1.036c0.257-0.145 0.348-0.471 0.203-0.728s-0.473-0.349-0.729-0.203c-0.883 0.498-1.368 1.197-1.368 1.967s0.485 1.469 1.368 1.967l11.543 6.516c0.819 0.462 1.871 0.694 2.922 0.694s2.104-0.231 2.923-0.694l11.543-6.516c0.883-0.498 1.369-1.197 1.369-1.967s-0.486-1.469-1.368-1.967zM30.765 20.804c-0.256-0.145-0.582-0.055-0.729 0.203-0.145 0.257-0.054 0.583 0.203 0.728 0.524 0.296 0.825 0.674 0.825 1.036s-0.301 0.74-0.825 1.037l-11.543 6.516c-1.298 0.733-3.494 0.734-4.794 0l-11.543-6.517c-0.524-0.296-0.824-0.674-0.824-1.037 0-0.362 0.3-0.74 0.824-1.036 0.257-0.145 0.348-0.471 0.203-0.728s-0.473-0.349-0.729-0.203c-0.881 0.499-1.367 1.197-1.367 1.968s0.485 1.469 1.368 1.967l11.543 6.516c0.819 0.462 1.871 0.694 2.922 0.694 1.052 0 2.104-0.231 2.923-0.694l11.543-6.516c0.883-0.499 1.369-1.197 1.369-1.967s-0.487-1.469-1.369-1.967z"></path>
</symbol>
<symbol id="icon-mobile-devices" viewBox="0 0 20 20">
<path d="M17 6v-1h-2v-3h-12v14h5v4h3c-1.105 0-2-0.895-2-2v0-10c0-1.105 0.895-2 2-2v0h6zM11.25 20h-8.25c-1.105 0-2-0.895-2-2v0-16c0-1.1 0.9-2 2-2h12c1.105 0 2 0.895 2 2v0 4c1.105 0 2 0.895 2 2v0 10c0 1.105-0.895 2-2 2v0h-5.75zM11 8v8h6v-8h-6zM14 19c0.552 0 1-0.448 1-1s-0.448-1-1-1v0c-0.552 0-1 0.448-1 1s0.448 1 1 1v0z"></path>
</symbol>
<symbol id="icon-code" viewBox="0 0 20 20">
<path d="M5.719 14.75c-0.236 0-0.474-0.083-0.664-0.252l-5.060-4.498 5.341-4.748c0.412-0.365 1.044-0.33 1.411 0.083s0.33 1.045-0.083 1.412l-3.659 3.253 3.378 3.002c0.413 0.367 0.45 0.999 0.083 1.412-0.197 0.223-0.472 0.336-0.747 0.336zM14.664 14.748l5.341-4.748-5.060-4.498c-0.413-0.367-1.045-0.33-1.411 0.083s-0.33 1.045 0.083 1.412l3.378 3.003-3.659 3.252c-0.413 0.367-0.45 0.999-0.083 1.412 0.197 0.223 0.472 0.336 0.747 0.336 0.236 0 0.474-0.083 0.664-0.252zM9.986 16.165l2-12c0.091-0.545-0.277-1.060-0.822-1.151-0.547-0.092-1.061 0.277-1.15 0.822l-2 12c-0.091 0.545 0.277 1.060 0.822 1.151 0.056 0.009 0.11 0.013 0.165 0.013 0.48 0 0.904-0.347 0.985-0.835z"></path>
</symbol>
<symbol id="icon-wordpress" viewBox="0 0 32 32">
<path  d="M28.625 9.1c1.12 2.049 1.757 4.4 1.757 6.9 0 5.305-2.875 9.941-7.151 12.433l4.393-12.703c0.82-2.053 1.093-3.695 1.093-5.152 0-0.54-0.035-1.040-0.093-1.48zM17.984 9.239c0.863-0.040 1.643-0.14 1.643-0.14 0.776-0.1 0.685-1.24-0.089-1.199 0 0-2.34 0.18-3.84 0.18-1.419 0-3.8-0.2-3.8-0.2-0.78-0.040-0.881 1.14-0.1 1.18 0 0 0.72 0.081 1.5 0.12l2.24 6.14-3.16 9.44-5.239-15.56c0.865-0.040 1.645-0.133 1.645-0.133 0.78-0.1 0.688-1.24-0.087-1.195 0 0-2.328 0.184-3.832 0.184-0.267 0-0.584-0.011-0.92-0.020 2.603-3.836 7.035-6.416 12.055-6.416 3.745 0 7.153 1.429 9.715 3.777-0.061-0.004-0.121-0.012-0.188-0.012-1.413 0-2.416 1.231-2.416 2.552 0 1.187 0.684 2.191 1.413 3.375 0.548 0.96 1.187 2.191 1.187 3.969 0 1.22-0.472 2.659-1.095 4.639l-1.433 4.78-5.2-15.48zM16 30.379c-1.412 0-2.775-0.204-4.064-0.583l4.316-12.541 4.42 12.116c0.032 0.071 0.067 0.135 0.104 0.199-1.493 0.524-3.1 0.812-4.776 0.812zM1.615 16c0-2.085 0.448-4.067 1.247-5.853l6.859 18.799c-4.795-2.332-8.104-7.251-8.105-12.945zM16 0c-8.82 0-16 7.18-16 16s7.18 16 16 16 16-7.18 16-16-7.18-16-16-16z"></path>
</symbol>
<symbol id="icon-fiverr" viewBox="0 0 32 32">
<path  d="M18.185 15.904h-1.272c0.080-0.344 0.288-0.656 0.712-0.656 0.328 0 0.56 0.304 0.56 0.656zM32.001 16c0 8.836-7.164 16-16 16s-16-7.164-16-16 7.164-16 16-16 16 7.164 16 16zM8.289 13.040c0 0.397 0.323 0.72 0.72 0.72s0.72-0.323 0.72-0.72-0.323-0.72-0.72-0.72-0.72 0.323-0.72 0.72zM10.313 17.6h-0.56v-3.368h-3.288v-0.216c0-0.424 0.424-0.432 0.64-0.432 0.248 0 0.36 0.024 0.36 0.024v-1.168c0 0-0.224-0.032-0.528-0.032-0.688 0-1.96 0.192-1.96 1.648v0.184h-0.6v1.080h0.6v2.28h-0.56v1.080h2.704v-1.080h-0.656v-2.28h1.8v2.28h-0.56v1.080h2.608zM14.865 15.312h0.496v-1.080h-2.36v1.080h0.4l-0.512 1.6c-0.096 0.264-0.12 0.584-0.12 0.584h-0.032c0 0-0.024-0.32-0.12-0.584l-0.512-1.6h0.4v-1.080h-2.36v1.080h0.496l1.232 3.36h1.76zM19.729 16.272c0-1.232-0.744-2.144-2.064-2.144-1.432 0-2.312 1.016-2.312 2.32 0 1.184 0.856 2.328 2.44 2.328 1.2 0 1.912-0.624 1.912-0.624l-0.544-1.032c0 0-0.592 0.424-1.248 0.424-0.472 0-0.92-0.248-1.032-0.816h2.816c-0.008-0.008 0.032-0.312 0.032-0.456zM23.697 14.176c0 0-0.088-0.016-0.176-0.016-0.68-0.008-1.24 0.488-1.424 1.096v0h-0.016c0 0 0.016-0.088 0.016-0.224v-0.232c0-0.408-0.224-0.568-0.632-0.568h-1.4v1.080h0.416c0.12 0 0.192 0.072 0.192 0.192v2.096h-0.6v1.080h2.696v-1.080h-0.6v-0.648c0-0.808 0.4-1.336 1.224-1.336 0.184 0 0.304 0.024 0.304 0.024zM27.641 15.64v-1.464c0 0-0.088-0.016-0.176-0.016-0.672-0.008-1.232 0.488-1.424 1.096v0h-0.016c0 0 0.016-0.088 0.016-0.224v-0.232c0-0.408-0.224-0.568-0.632-0.568h-1.4v1.080h0.416c0.12 0 0.192 0.072 0.192 0.192v2.096h-0.6v1.080h2.696v-1.080h-0.6v-0.648c0-0.808 0.4-1.336 1.224-1.336 0.184 0 0.304 0.024 0.304 0.024z"></path>
</symbol>
<symbol id="icon-upwork" viewBox="0 0 32 32">
<path  d="M24.748 17.544c-1.469 0-2.847-0.623-4.099-1.636l0.304-1.435 0.011-0.056c0.276-1.524 1.132-4.080 3.785-4.080 1.989 0 3.604 1.616 3.604 3.604-0.001 1.985-1.616 3.603-3.605 3.603zM24.748 6.691c-3.385 0-6.013 2.199-7.080 5.821-1.627-2.445-2.864-5.381-3.583-7.856h-3.648v9.483c-0.003 1.875-1.521 3.395-3.396 3.397-1.873-0.003-3.391-1.524-3.393-3.397v-9.483h-3.648v9.483c0 3.885 3.16 7.071 7.041 7.071 3.884 0 7.044-3.185 7.044-7.071v-1.587c0.705 1.476 1.576 2.972 2.632 4.295l-2.231 10.497h3.729l1.617-7.613c1.417 0.905 3.047 1.479 4.915 1.479 4 0 7.252-3.269 7.252-7.267 0-4-3.252-7.252-7.252-7.252z"></path>
</symbol>
<symbol id="icon-html-five2" viewBox="0 0 32 32">
<path d="M1.892 0l2.567 28.801 11.524 3.199 11.554-3.204 2.572-28.796h-28.216zM25.336 26.963l-9.288 2.574v0.015l-0.024-0.007-0.024 0.007v-0.015l-9.288-2.574-2.195-24.609h23.015l-2.195 24.609zM20.336 16.569l-0.408 4.58-3.944 1.065-3.933-1.060-0.252-2.82h-3.547l0.495 5.547 7.252 2.006 7.229-2.006 0.97-10.844h-12.874l-0.322-3.617h13.517l0.316-3.532h-17.694l0.953 10.681z"></path>
</symbol>
<symbol id="icon-css3" viewBox="0 0 32 32">
<path d="M4.762 1.516l-1.074 5.373h21.867l-0.684 3.47h-21.881l-1.059 5.372h21.865l-1.219 6.127-8.813 2.919-7.638-2.919 0.523-2.658h-5.372l-1.278 6.448 12.632 4.834 14.563-4.834 4.805-24.133z"></path>
</symbol>
</defs>
</svg>
